<svg id="Layer_1" data-name="Layer 1" xmlns="http://www.w3.org/2000/svg" xmlns:xlink="http://www.w3.org/1999/xlink" viewBox="0 0 402 93"><defs><style>.cls-1{fill:#fff;}.cls-2{fill:url(#linear-gradient);}.cls-3{fill:url(#linear-gradient-2);}.cls-4{fill:url(#linear-gradient-3);}.cls-5{fill:url(#linear-gradient-4);}.cls-6{fill:#ffc400;}</style><linearGradient id="linear-gradient" x1="39.42" y1="24.49" x2="155.43" y2="162.74" gradientUnits="userSpaceOnUse"><stop offset="0" stop-color="#c6e0e8"/><stop offset="0.07" stop-color="#a6d7e0"/><stop offset="0.17" stop-color="#7dccd6"/><stop offset="0.27" stop-color="#5bc2cd"/><stop offset="0.38" stop-color="#41bac6"/><stop offset="0.49" stop-color="#2eb5c2"/><stop offset="0.6" stop-color="#23b2bf"/><stop offset="0.72" stop-color="#1fb1be"/><stop offset="0.75" stop-color="#2eb6c5"/><stop offset="0.8" stop-color="#48bfd0"/><stop offset="0.87" stop-color="#5ac6d8"/><stop offset="0.93" stop-color="#64cadc"/><stop offset="1" stop-color="#68cbde"/></linearGradient><linearGradient id="linear-gradient-2" x1="37.68" y1="25.95" x2="153.68" y2="164.2" xlink:href="#linear-gradient"/><linearGradient id="linear-gradient-3" x1="24.91" y1="36.67" x2="140.91" y2="174.92" xlink:href="#linear-gradient"/><linearGradient id="linear-gradient-4" x1="30.07" y1="32.33" x2="146.08" y2="170.58" xlink:href="#linear-gradient"/></defs><title>Artboard 1</title><path class="cls-1" d="M103.87,53.07H102.1l-.1.36c-.91,3.2-3.59,5-7.36,5-5.33,0-8.44-3.51-8.6-9.66h17.84v-.95c0-6.48-3.74-10.67-9.53-10.67S84.3,41.94,84.3,48.5v.33c0,6.85,4.06,11.28,10.34,11.28,4.56,0,7.95-2.4,9.06-6.41ZM94.35,38.83c4.73,0,7.54,3,7.78,8.31H86.06C86.48,42.15,89.76,38.83,94.35,38.83Z"/><polygon class="cls-1" points="122.38 37.46 120.28 37.46 113.38 46.88 106.32 37.46 104.17 37.46 112.27 48.22 103.69 59.82 105.8 59.82 113.35 49.54 121.06 59.82 123.21 59.82 114.46 48.21 122.38 37.46"/><path class="cls-1" d="M135.4,37.18a10.15,10.15,0,0,0-8.65,5.16V37.46H125v29.8h1.74V55.15a9.86,9.86,0,0,0,8.65,5c5.85,0,9.94-4.64,9.94-11.28V48.5C145.33,41.94,141.15,37.18,135.4,37.18Zm8.2,11.65c0,5.76-3.3,9.63-8.2,9.63-4.19,0-8.65-3.37-8.65-9.63V48.5c0-6.05,4.4-9.67,8.65-9.67,3.95,0,8.2,3,8.2,9.67Z"/><path class="cls-1" d="M157.46,37.28l-.52,0a8.37,8.37,0,0,0-7,3.78V37.46h-1.74V59.82H150V47.36c0-5.13,2.61-8.27,7-8.4l.48,0Z"/><path class="cls-1" d="M167.38,37.18c-5.83,0-10.06,4.76-10.06,11.32v.33c0,6.85,4.06,11.28,10.34,11.28,4.56,0,7.95-2.4,9.06-6.41l.18-.63h-1.77l-.1.36c-.91,3.2-3.59,5-7.36,5-5.33,0-8.44-3.51-8.6-9.66H176.9v-.95C176.9,41.36,173.16,37.18,167.38,37.18Zm-8.29,10c.42-5,3.7-8.31,8.29-8.31s7.54,3,7.78,8.31Z"/><path class="cls-1" d="M187.07,47.52h0c-5-.88-6.41-1.89-6.41-4.49s2.26-4.16,5.63-4.16,5.37,1.4,5.92,4.29l.08.41H194l-.1-.58c-.62-3.77-3.24-5.77-7.56-5.77S179,39.61,179,43c0,4,2.71,5.25,7.72,6.13,4.72.85,5.88,1.77,5.88,4.7s-2.36,4.69-5.87,4.69c-3.91,0-6.34-1.94-6.86-5.45l-.06-.43h-1.68l.05.55c.42,4.31,3.7,7,8.54,7,4.43,0,7.65-2.67,7.65-6.34C194.34,49.63,191.78,48.36,187.07,47.52Z"/><path class="cls-1" d="M204.34,47.52h0c-5-.88-6.41-1.89-6.41-4.49s2.26-4.16,5.63-4.16,5.37,1.4,5.92,4.29l.08.41h1.7l-.1-.58c-.62-3.77-3.24-5.77-7.56-5.77s-7.36,2.39-7.36,5.81c0,4,2.71,5.24,7.72,6.13,4.73.85,5.88,1.77,5.88,4.7s-2.36,4.69-5.87,4.69c-3.91,0-6.34-1.94-6.86-5.45l-.06-.43h-1.68l.05.55c.42,4.31,3.7,7,8.54,7,4.43,0,7.65-2.67,7.65-6.34C211.62,49.63,209.06,48.36,204.34,47.52Z"/><path class="cls-1" d="M239.73,41.7a9,9,0,0,0-8.2-4.53c-6,0-10.38,4.56-10.38,10.83v.33c0,6.46,4,10.79,10.06,10.79a9.85,9.85,0,0,0,8.53-4.72v3.53c0,6.44-4.48,7.79-8.24,7.79-4.6,0-7.5-1.87-8.17-5.27l-.08-.4h-1.73l.09.57c.49,3.27,3.36,6.76,9.93,6.76,6.31,0,9.93-3.44,9.93-9.44V37.46h-1.73Zm0,6.63c0,6-4.29,9.14-8.53,9.14-5.06,0-8.32-3.59-8.32-9.14V48c0-6.31,4.48-9.18,8.65-9.18,4.9,0,8.2,3.69,8.2,9.18Z"/><path class="cls-1" d="M254,37.18c-4.6,0-7.9,2.53-8.42,6.44l-.08.57h1.68l.08-.41c.79-4.3,4.56-4.94,6.74-4.94,4.09,0,5.91,1.95,5.91,6.32V46.9h-5.59c-6.46,0-9.73,2.3-9.73,6.83,0,3.94,3,6.38,7.89,6.38A9.54,9.54,0,0,0,260,57v2.8h1.73V45.15C261.69,39.93,259,37.18,254,37.18ZM260,53.12c0,2.8-3.54,5.34-7.42,5.34-2.3,0-6.16-.61-6.16-4.73,0-3.63,2.39-5.18,8-5.18H260Z"/><path class="cls-1" d="M272,58.46c-2.22,0-3.34-1.36-3.34-4V39.12h6.29V37.46h-6.29V32.6h-1.73v4.86h-3.27v1.65h3.27V54.42c0,3.61,1.85,5.69,5.07,5.69a8,8,0,0,0,2.9-.48l.33-.12v-1.7l-.66.22A7.82,7.82,0,0,1,272,58.46Z"/><path class="cls-1" d="M286.06,37.18c-5.83,0-10.06,4.76-10.06,11.32v.33c0,6.85,4.06,11.28,10.34,11.28,4.56,0,7.95-2.4,9.06-6.41l.18-.63h-1.77l-.1.36c-.91,3.2-3.59,5-7.36,5-5.33,0-8.44-3.51-8.6-9.66h17.84v-.95C295.58,41.36,291.84,37.18,286.06,37.18Zm-8.29,10c.42-5,3.7-8.31,8.29-8.31s7.54,3,7.78,8.31Z"/><polygon class="cls-1" points="317.79 56.83 311.62 37.46 310.32 37.46 304.07 56.83 297.9 37.46 296.07 37.46 303.17 59.82 303.97 59.82 304.06 60.1 304.15 59.82 304.88 59.82 310.96 40.92 316.93 59.82 317.7 59.82 317.79 60.1 317.88 59.82 318.64 59.82 325.83 37.46 324.04 37.46 317.79 56.83"/><path class="cls-1" d="M335.55,37.18c-4.6,0-7.9,2.53-8.42,6.44l-.08.57h1.68l.08-.41c.79-4.3,4.56-4.94,6.74-4.94,4.09,0,5.91,1.95,5.91,6.32V46.9h-5.59c-6.46,0-9.73,2.3-9.73,6.83,0,3.94,3,6.38,7.89,6.38A9.55,9.55,0,0,0,341.47,57v2.8h1.73V45.15C343.2,39.93,340.56,37.18,335.55,37.18Zm5.91,15.94c0,2.8-3.54,5.34-7.42,5.34-2.3,0-6.16-.61-6.16-4.73,0-3.63,2.39-5.18,8-5.18h5.59Z"/><polygon class="cls-1" points="361.89 37.46 354.33 55.75 346.5 37.46 344.64 37.46 353.39 57.9 349.51 67.26 351.37 67.26 363.75 37.46 361.89 37.46"/><path class="cls-2" d="M71.87,46.69l-1.11-1.92c-3.75-3.43-8.64-7-15.46-7.21-5.65-.19-8.94,2-13.1,4.72l-1.39.91c1.74.77,3.41,1.68,5,2.55.69.38,1.36.75,2,1.09l1.05.56C57.09,44.21,65,45.13,72,47.08a3,3,0,0,1,.06,1.57c-6.54-1.87-13.88-2.87-21.46-.3.8.46,1.52.89,2.19,1.3A25.05,25.05,0,0,0,60.15,53c3.66.93,7.08-.2,10.58-1.8l1.13-2A2.58,2.58,0,0,0,71.87,46.69Z"/><path class="cls-3" d="M39.37,42.6l2.12-1.38c4.35-2.87,7.78-5.13,13.84-4.93a22.92,22.92,0,0,1,13.55,5.24L61.7,29.09a2.58,2.58,0,0,0-2.23-1.29H39.14a2.58,2.58,0,0,0-2.23,1.29L29.55,41.83a15.92,15.92,0,0,1,1.79-.36A16,16,0,0,1,39.37,42.6Z"/><path class="cls-4" d="M31.52,42.72a13.5,13.5,0,0,0-2.9.72l-1.88,3.25a2.57,2.57,0,0,0-.27.66A28.51,28.51,0,0,0,37.8,43.58l.2-.12A14.12,14.12,0,0,0,31.52,42.72Z"/><path class="cls-5" d="M59.84,54.26a26,26,0,0,1-7.7-3.53c-.92-.55-1.92-1.15-3.1-1.81l-1.6.64c-4.73,1.9-9.57,3.85-14.44,3.85a16.33,16.33,0,0,1-4.18-.54l-1.15-2a9.18,9.18,0,0,0,1.27.49c5.86,1.66,12-.8,17.94-3.19l.45-.18-.1-.05c-.66-.35-1.34-.72-2-1.1A56.07,56.07,0,0,0,39.51,44l-1.06.65a29.86,29.86,0,0,1-12,4,2.58,2.58,0,0,0,.26.65l10.16,17.6a2.58,2.58,0,0,0,2.23,1.29H59.47a2.58,2.58,0,0,0,2.23-1.29l8-13.81a18.23,18.23,0,0,1-6.85,1.56A12.11,12.11,0,0,1,59.84,54.26Z"/><path class="cls-6" d="M46.89,48.18C40.95,50.57,34.81,53,28.95,51.37a9.18,9.18,0,0,1-1.27-.49l1.15,2a16.33,16.33,0,0,0,4.18.54c4.86,0,9.71-1.95,14.44-3.85l1.6-.64c-.53-.3-1.1-.6-1.7-.92Z"/><path class="cls-6" d="M72.06,48.65A3,3,0,0,0,72,47.08c-7-1.95-14.9-2.87-23.12.32l1.72,1C58.18,45.78,65.52,46.78,72.06,48.65Z"/><path class="cls-6" d="M48.69,47.46,47.34,48c.61.32,1.17.63,1.7.92l.19-.08c.45-.18.91-.34,1.36-.5l-1.72-1Z"/></svg>