<svg id="Layer_1" data-name="Layer 1" xmlns="http://www.w3.org/2000/svg" xmlns:xlink="http://www.w3.org/1999/xlink" viewBox="0 0 575 88"><defs><style>.cls-1{fill:#0e6996;}.cls-2{fill:url(#linear-gradient);}.cls-3{fill:url(#linear-gradient-2);}.cls-4{fill:url(#linear-gradient-3);}.cls-5{fill:url(#linear-gradient-4);}.cls-6{fill:#ffc500;}</style><linearGradient id="linear-gradient" x1="34.04" y1="5.31" x2="217.93" y2="224.46" gradientUnits="userSpaceOnUse"><stop offset="0" stop-color="#0c6c7b"/><stop offset="0.08" stop-color="#208495"/><stop offset="0.2" stop-color="#3aa3b7"/><stop offset="0.32" stop-color="#4ebcd1"/><stop offset="0.45" stop-color="#5dcde4"/><stop offset="0.58" stop-color="#65d8ef"/><stop offset="0.72" stop-color="#68dbf3"/><stop offset="0.73" stop-color="#68dbf3"/><stop offset="1" stop-color="#68dbf3"/></linearGradient><linearGradient id="linear-gradient-2" x1="31.27" y1="7.63" x2="215.16" y2="226.78" xlink:href="#linear-gradient"/><linearGradient id="linear-gradient-3" x1="11.03" y1="24.62" x2="194.92" y2="243.77" xlink:href="#linear-gradient"/><linearGradient id="linear-gradient-4" x1="19.22" y1="17.74" x2="203.11" y2="236.89" xlink:href="#linear-gradient"/></defs><title>Artboard 1</title><path class="cls-1" d="M121.11,26.09c-8.85,0-15.27,7.27-15.27,17.28v.52c0,10.46,6.17,17.22,15.73,17.22,6.91,0,12-3.62,13.72-9.67l0-.16H133.9l0,.09c-1.53,5.37-6,8.46-12.31,8.46-9.06,0-14.27-6.07-14.31-16.65h28.29v-.84C135.55,32.32,130,26.09,121.11,26.09Zm-13.85,15.8c.43-8.69,6-14.51,13.85-14.51s12.85,5.42,13,14.51Z"/><polygon class="cls-1" points="164.22 26.55 162.55 26.55 151.28 41.94 139.79 26.6 139.75 26.55 138.02 26.55 150.35 42.92 137.39 60.46 137.24 60.66 138.91 60.66 151.22 43.91 163.74 60.61 163.78 60.66 165.52 60.66 152.15 42.92 164.22 26.55"/><path class="cls-1" d="M186.18,26.09c-7.24,0-12.42,5.27-14.38,10.4V26.55h-1.42V72.44h1.42V51a15.26,15.26,0,0,0,14.38,10.08,14.35,14.35,0,0,0,10.6-4.48c2.93-3.12,4.48-7.52,4.48-12.74v-.52C201.26,33.36,194.91,26.09,186.18,26.09Zm0,33.73a13.81,13.81,0,0,1-10-4.25,16.38,16.38,0,0,1-4.38-11.68v-.52a16.48,16.48,0,0,1,4.59-11.76,14,14,0,0,1,9.78-4.24c6.58,0,13.67,5,13.67,16v.52c0,4.8-1.37,8.85-4,11.73A12.86,12.86,0,0,1,186.18,59.83Z"/><path class="cls-1" d="M208.63,34.32V26.55h-1.42V60.66h1.42V41.56c0-12.64,9-13.9,11.73-14h.12V26.28h-.13A12.64,12.64,0,0,0,208.63,34.32Z"/><path class="cls-1" d="M236.86,26.09c-8.85,0-15.27,7.27-15.27,17.28v.52c0,10.46,6.17,17.22,15.73,17.22,6.91,0,12-3.62,13.72-9.67l0-.16h-1.42l0,.09c-1.53,5.37-6,8.46-12.31,8.46-9.06,0-14.27-6.07-14.31-16.65H251.3v-.84C251.3,32.32,245.77,26.09,236.86,26.09ZM223,41.89c.43-8.69,6-14.51,13.85-14.51s12.85,5.42,13,14.51Z"/><path class="cls-1" d="M268,42.48c-8.21-1.45-10.71-3.27-10.71-7.78,0-4.34,3.85-7.26,9.59-7.26s9.12,2.47,10,7.34l0,.1h1.35l0-.15c-.93-5.62-4.84-8.59-11.32-8.59s-11,3.51-11,8.54c0,5.91,3.94,7.69,11.69,9.06s9.87,3.07,9.87,8.1c0,4.84-4,8.1-10,8.1C261,60,256.81,56.6,256,50.74l0-.11h-1.35v.14c.63,6.46,5.57,10.47,12.88,10.47,6.74,0,11.46-3.86,11.46-9.38C278.94,45.59,275.24,43.78,268,42.48Z"/><path class="cls-1" d="M295.34,42.48c-8.21-1.45-10.71-3.27-10.71-7.78,0-4.34,3.85-7.26,9.59-7.26s9.12,2.47,10,7.34l0,.1h1.35l0-.15c-.93-5.62-4.84-8.59-11.32-8.59s-11,3.51-11,8.54c0,5.91,3.94,7.69,11.69,9.06s9.87,3.07,9.87,8.1c0,4.84-4,8.1-10,8.1-6.47,0-10.67-3.36-11.53-9.22l0-.11H282v.14c.63,6.46,5.57,10.47,12.88,10.47,6.74,0,11.46-3.86,11.46-9.38C306.32,45.59,302.63,43.78,295.34,42.48Z"/><path class="cls-1" d="M352.23,35.49c-1.49-3.79-5.13-9.4-13.67-9.4-9.15,0-15.79,6.94-15.79,16.51v.52c0,11.36,7.67,16.44,15.27,16.44a15,15,0,0,0,14.18-9.68v8.45c0,10.76-7.47,13-13.73,13-7.53,0-12.49-3.24-13.6-8.9l0-.1h-1.41l0,.14a10.72,10.72,0,0,0,4.22,7c2.7,2.06,6.35,3.1,10.86,3.1,9.72,0,15.08-5.08,15.08-14.3V26.55h-1.42Zm0,7.11v.52c0,9.95-7.13,15.15-14.18,15.15a13.31,13.31,0,0,1-9.89-4c-2.6-2.71-4-6.58-4-11.19V42.6c0-9,5.91-15.22,14.38-15.22C346.74,27.38,352.23,33.5,352.23,42.6Z"/><path class="cls-1" d="M374.24,26.09c-6.93,0-11.91,3.78-12.68,9.63l0,.14h1.35l0-.1c1-5.33,5.12-8.38,11.34-8.38,6.85,0,10,3.4,10,10.69V41.5h-9.52C365,41.5,360,44.92,360,51.66c0,5.92,4.43,9.45,11.84,9.45,6.51,0,10.63-3.18,12.44-6.3v5.85h1.42V38.07C385.69,30.12,381.84,26.09,374.24,26.09Zm-2.4,33.73c-6.72,0-10.43-2.9-10.43-8.16,0-7.87,7.13-8.87,13.34-8.87h9.52v7.9C384.28,55.56,378.46,59.83,371.84,59.83Z"/><path class="cls-1" d="M402.65,59.83c-3.9,0-6-2.44-6-7.06V27.83h10V26.55h-10v-7.7h-1.42v7.7H390.1v1.29h5.18V52.76c0,5.38,2.62,8.35,7.38,8.35a12.18,12.18,0,0,0,4.38-.72l.08,0v-1.3l-.17.06A13,13,0,0,1,402.65,59.83Z"/><path class="cls-1" d="M425,26.09c-8.85,0-15.28,7.27-15.28,17.28v.52c0,10.46,6.17,17.22,15.73,17.22,6.91,0,12-3.62,13.72-9.67l0-.16h-1.42l0,.09c-1.53,5.37-6,8.46-12.31,8.46-9.06,0-14.27-6.07-14.31-16.65h28.29v-.84C439.42,32.32,433.89,26.09,425,26.09Zm-13.85,15.8c.43-8.69,6-14.51,13.85-14.51s12.85,5.42,13,14.51Z"/><polygon class="cls-1" points="475.29 58.77 465.05 26.63 465.02 26.55 463.94 26.55 453.54 58.77 443.3 26.63 443.27 26.55 441.78 26.55 452.58 60.57 452.6 60.66 454.34 60.66 464.48 29.16 474.39 60.57 474.42 60.66 476.16 60.66 487.06 26.71 487.12 26.55 485.69 26.55 475.29 58.77"/><path class="cls-1" d="M503.45,26.09c-6.93,0-11.91,3.78-12.68,9.63l0,.14h1.35l0-.1c1-5.33,5.12-8.38,11.34-8.38,6.85,0,10,3.4,10,10.69V41.5H504c-9.79,0-14.76,3.42-14.76,10.16,0,5.92,4.43,9.45,11.84,9.45,6.51,0,10.63-3.18,12.44-6.3v5.85h1.42V38.07C514.91,30.12,511.05,26.09,503.45,26.09Zm-2.4,33.73c-6.72,0-10.43-2.9-10.43-8.16,0-7.87,7.13-8.87,13.34-8.87h9.52v7.9C513.49,55.56,507.68,59.83,501.05,59.83Z"/><polygon class="cls-1" points="545.64 26.55 533.23 56.59 520.4 26.62 520.36 26.55 518.86 26.55 532.45 58.27 526.64 72.27 526.57 72.44 528.07 72.44 547.07 26.72 547.14 26.55 545.64 26.55"/><path class="cls-2" d="M85.47,40.51l-1.76-3C77.77,32,70,26.39,59.2,26c-9-.3-14.18,3.13-20.77,7.48L36.23,35c2.76,1.22,5.41,2.67,7.94,4,1.09.6,2.16,1.18,3.2,1.73l1.67.89c13-5,25.53-3.59,36.64-.5a4.82,4.82,0,0,1,.1,2.49c-10.37-3-22-4.55-34-.47,1.27.73,2.41,1.41,3.48,2.05,4,2.42,7,4.17,11.67,5.36,5.8,1.47,11.22-.32,16.77-2.85l1.8-3.11A4.09,4.09,0,0,0,85.47,40.51Z"/><path class="cls-3" d="M34,34c1.16-.74,2.28-1.47,3.36-2.19C44.22,27.3,49.66,23.7,59.27,24c9,.3,15.93,4,21.48,8.3L69.36,12.61a4.09,4.09,0,0,0-3.54-2H33.6a4.09,4.09,0,0,0-3.54,2L18.4,32.8a25.23,25.23,0,0,1,2.84-.57A25.43,25.43,0,0,1,34,34Z"/><path class="cls-4" d="M21.52,34.21a21.41,21.41,0,0,0-4.6,1.15l-3,5.16a4.08,4.08,0,0,0-.42,1.05,45.19,45.19,0,0,0,18-6l.32-.2A22.39,22.39,0,0,0,21.52,34.21Z"/><path class="cls-5" d="M66.41,52.5c-5-1.27-8-3.08-12.21-5.59-1.46-.87-3-1.82-4.91-2.86l-2.54,1c-7.49,3-15.18,6.1-22.88,6.1a25.88,25.88,0,0,1-6.63-.85l-1.82-3.16a14.55,14.55,0,0,0,2,.77c9.29,2.64,19-1.28,28.44-5.06l.72-.29-.16-.08c-1-.55-2.13-1.14-3.23-1.74a88.88,88.88,0,0,0-9-4.5l-1.68,1a47.33,47.33,0,0,1-19,6.28,4.08,4.08,0,0,0,.42,1L30.06,72.5a4.09,4.09,0,0,0,3.54,2H65.82a4.09,4.09,0,0,0,3.54-2L82,50.61a28.9,28.9,0,0,1-10.86,2.47A19.19,19.19,0,0,1,66.41,52.5Z"/><path class="cls-6" d="M45.88,42.87c-9.41,3.79-19.15,7.7-28.44,5.06a14.55,14.55,0,0,1-2-.77l1.82,3.16a25.88,25.88,0,0,0,6.63.85c7.71,0,15.39-3.09,22.88-6.1l2.54-1c-.84-.47-1.74-1-2.7-1.47Z"/><path class="cls-6" d="M85.78,43.61a4.82,4.82,0,0,0-.1-2.49C74.56,38,62.05,36.57,49,41.62q1.46.79,2.72,1.52C63.78,39.06,75.41,40.65,85.78,43.61Z"/><path class="cls-6" d="M48.73,41.73l-2.13.85c1,.51,1.86,1,2.7,1.47l.3-.12c.72-.28,1.44-.54,2.16-.79q-1.27-.73-2.72-1.52Z"/></svg>