<svg id="Layer_1" data-name="Layer 1" xmlns="http://www.w3.org/2000/svg" xmlns:xlink="http://www.w3.org/1999/xlink" viewBox="0 0 512 239"><defs><style>.cls-1{fill:#0e6996;}.cls-2{fill:url(#linear-gradient);}.cls-3{fill:#30a3b2;opacity:0.62;}.cls-4{fill:#ffc400;}</style><linearGradient id="linear-gradient" x1="800.45" y1="322.64" x2="1111.53" y2="322.64" gradientTransform="matrix(-1, -0.04, 0.07, -1.53, 1186.15, 691.61)" gradientUnits="userSpaceOnUse"><stop offset="0.23" stop-color="#a4f1f8" stop-opacity="0.5"/><stop offset="0.38" stop-color="#8ee3ee" stop-opacity="0.5"/><stop offset="0.64" stop-color="#53bdd3" stop-opacity="0.5"/><stop offset="0.76" stop-color="#34a9c5" stop-opacity="0.5"/></linearGradient></defs><title>Artboard 1</title><path class="cls-1" d="M52.11,38.09c-8.85,0-15.27,7.27-15.27,17.28v.52c0,10.46,6.17,17.22,15.73,17.22,6.91,0,12-3.62,13.72-9.67l0-.16H64.9l0,.09c-1.53,5.37-6,8.46-12.31,8.46-9.06,0-14.27-6.07-14.31-16.65H66.55v-.84C66.55,44.32,61,38.09,52.11,38.09ZM38.26,53.89c.43-8.69,6-14.51,13.85-14.51S65,44.8,65.13,53.89Z"/><polygon class="cls-1" points="95.22 38.55 93.55 38.55 82.28 53.94 70.79 38.6 70.75 38.55 69.02 38.55 81.35 54.92 68.39 72.46 68.24 72.66 69.91 72.66 82.22 55.91 94.74 72.61 94.78 72.66 96.52 72.66 83.15 54.92 95.22 38.55"/><path class="cls-1" d="M117.18,38.09c-7.24,0-12.42,5.27-14.38,10.4V38.55h-1.42V84.44h1.42V63a15.26,15.26,0,0,0,14.38,10.08,14.35,14.35,0,0,0,10.6-4.48c2.93-3.12,4.48-7.52,4.48-12.74v-.52C132.26,45.36,125.91,38.09,117.18,38.09Zm13.67,17.8c0,4.8-1.37,8.85-4,11.73a12.86,12.86,0,0,1-9.69,4.2,13.81,13.81,0,0,1-10-4.25,16.38,16.38,0,0,1-4.38-11.68v-.52a16.48,16.48,0,0,1,4.59-11.76,14,14,0,0,1,9.78-4.24c6.58,0,13.67,5,13.67,16Z"/><path class="cls-1" d="M139.63,46.32V38.55h-1.42V72.66h1.42V53.56c0-12.64,9-13.9,11.73-14h.12V38.28h-.13A12.64,12.64,0,0,0,139.63,46.32Z"/><path class="cls-1" d="M167.86,38.09c-8.85,0-15.27,7.27-15.27,17.28v.52c0,10.46,6.17,17.22,15.73,17.22,6.91,0,12-3.62,13.72-9.67l0-.16h-1.42l0,.09c-1.53,5.37-6,8.46-12.31,8.46-9.06,0-14.27-6.07-14.31-16.65H182.3v-.84C182.3,44.32,176.77,38.09,167.86,38.09ZM154,53.89c.43-8.69,6-14.51,13.85-14.51s12.85,5.42,13,14.51Z"/><path class="cls-1" d="M199,54.48c-8.21-1.45-10.71-3.27-10.71-7.78,0-4.34,3.85-7.26,9.59-7.26s9.12,2.47,10,7.34l0,.1h1.35l0-.15c-.93-5.62-4.84-8.59-11.32-8.59s-11,3.51-11,8.54c0,5.91,3.94,7.69,11.69,9.06s9.87,3.07,9.87,8.1c0,4.84-4,8.1-10,8.1C192,72,187.81,68.6,187,62.74l0-.11h-1.35v.14c.63,6.46,5.57,10.47,12.88,10.47,6.74,0,11.46-3.86,11.46-9.38C209.94,57.59,206.24,55.78,199,54.48Z"/><path class="cls-1" d="M226.34,54.48c-8.21-1.45-10.71-3.27-10.71-7.78,0-4.34,3.85-7.26,9.59-7.26s9.12,2.47,10,7.34l0,.1h1.35l0-.15c-.93-5.62-4.84-8.59-11.32-8.59s-11,3.51-11,8.54c0,5.91,3.94,7.69,11.69,9.06s9.87,3.07,9.87,8.1c0,4.84-4,8.1-10,8.1-6.47,0-10.67-3.36-11.53-9.22l0-.11H213v.14c.63,6.46,5.57,10.47,12.88,10.47,6.74,0,11.46-3.86,11.46-9.38C237.32,57.59,233.63,55.78,226.34,54.48Z"/><path class="cls-1" d="M283.23,47.49c-1.49-3.79-5.13-9.4-13.67-9.4-9.15,0-15.79,6.94-15.79,16.51v.52c0,11.36,7.67,16.44,15.27,16.44a15,15,0,0,0,14.18-9.68v8.45c0,10.76-7.47,13-13.73,13-7.53,0-12.49-3.24-13.6-8.9l0-.1h-1.41l0,.14a10.72,10.72,0,0,0,4.22,7c2.7,2.06,6.35,3.1,10.86,3.1,9.72,0,15.08-5.08,15.08-14.3V38.55h-1.42Zm0,7.62c0,9.95-7.13,15.15-14.18,15.15a13.31,13.31,0,0,1-9.89-4c-2.6-2.71-4-6.58-4-11.19V54.6c0-9,5.91-15.22,14.38-15.22,8.17,0,13.67,6.12,13.67,15.22Z"/><path class="cls-1" d="M305.24,38.09c-6.93,0-11.91,3.78-12.68,9.63l0,.14h1.35l0-.1c1-5.33,5.12-8.38,11.34-8.38,6.85,0,10,3.4,10,10.69V53.5h-9.52C296,53.5,291,56.92,291,63.66c0,5.92,4.43,9.45,11.84,9.45,6.51,0,10.63-3.18,12.44-6.3v5.85h1.42V50.07C316.69,42.12,312.84,38.09,305.24,38.09Zm10,24.6c0,4.87-5.81,9.13-12.44,9.13s-10.43-2.9-10.43-8.16c0-7.87,7.13-8.87,13.34-8.87h9.52Z"/><path class="cls-1" d="M333.65,71.83c-3.9,0-6-2.44-6-7.06V39.83h10V38.55h-10v-7.7h-1.42v7.7H321.1v1.29h5.18V64.76c0,5.38,2.62,8.35,7.38,8.35a12.18,12.18,0,0,0,4.38-.72l.08,0v-1.3l-.17.06A13,13,0,0,1,333.65,71.83Z"/><path class="cls-1" d="M356,38.09c-8.85,0-15.28,7.27-15.28,17.28v.52c0,10.46,6.17,17.22,15.73,17.22,6.91,0,12-3.62,13.72-9.67l0-.16h-1.42l0,.09c-1.53,5.37-6,8.46-12.31,8.46-9.06,0-14.27-6.07-14.31-16.65h28.29v-.84C370.42,44.32,364.89,38.09,356,38.09Zm-13.85,15.8c.43-8.69,6-14.51,13.85-14.51s12.85,5.42,13,14.51Z"/><polygon class="cls-1" points="406.29 70.77 396.05 38.63 396.02 38.55 394.94 38.55 384.54 70.77 374.3 38.63 374.27 38.55 372.78 38.55 383.58 72.57 383.6 72.66 385.34 72.66 395.48 41.16 405.39 72.57 405.42 72.66 407.16 72.66 418.06 38.71 418.12 38.55 416.69 38.55 406.29 70.77"/><path class="cls-1" d="M434.45,38.09c-6.93,0-11.91,3.78-12.68,9.63l0,.14h1.35l0-.1c1-5.33,5.12-8.38,11.34-8.38,6.85,0,10,3.4,10,10.69V53.5H435c-9.79,0-14.76,3.42-14.76,10.16,0,5.92,4.43,9.45,11.84,9.45,6.51,0,10.63-3.18,12.44-6.3v5.85h1.42V50.07C445.91,42.12,442.05,38.09,434.45,38.09Zm10,24.6c0,4.87-5.81,9.13-12.44,9.13s-10.43-2.9-10.43-8.16c0-7.87,7.13-8.87,13.34-8.87h9.52Z"/><polygon class="cls-1" points="476.64 38.55 464.23 68.58 451.4 38.62 451.36 38.55 449.86 38.55 463.45 70.27 457.64 84.27 457.57 84.44 459.07 84.44 478.07 38.72 478.14 38.55 476.64 38.55"/><path class="cls-2" d="M400.3,170.22c-11.55,11.43-29.91,21-44.58,21.86-36.27,2-63.32-8.75-96.7-23.6-24.76-11-52.84-25.42-78.78-27.89-36.1-3.43-61.45-2.37-80.87,14.23,0,0-1.57-1.15-2.5-1.81,18.77-24.41,55.35-28.56,83.5-29.06,39.16-.69,68.24,16.79,105.15,34.68s74,32.23,108.32,12.17c5.87-3.44,10.28-7.68,12.68-12l1.48-.41S406.91,163.68,400.3,170.22Z"/><path class="cls-3" d="M153.94,196.18c36.29,14.37,62.18,15.18,105.88-1.61,62.45-24,110.67-39.19,146.7-35.74l.84-.93c-32.09-13.41-59.4-13.59-129,10.87-44,15.44-82.93,19.35-121.58,11.7-29.95-5.93-49.58-20-59.9-27.47,0,0-.52,2.34.52,3.58C106.62,165.5,123.93,184.3,153.94,196.18Z"/><path class="cls-4" d="M177.76,169.37a247,247,0,0,1-50.8-5,171.25,171.25,0,0,1-23.3-6.55c-1.53-1-3-2.12-4.29-3,9.89,4.14,50.26,18.72,113.44,11.23,32.66-3.87,59.37-8.89,80.84-12.91C321,148,342.51,144,361.45,145c31.1,1.63,44.85,11.89,45.38,12.32a8.69,8.69,0,0,1,1.17,1.13c-.19.07-1.2.34-1.48.41-.14-.11-14.43-11.05-45.13-12.66-18.78-1-40.29,3-67.51,8.15-21.49,4-48.22,9-80.92,12.92A298.63,298.63,0,0,1,177.76,169.37Z"/></svg>